<svg xmlns="http://www.w3.org/2000/svg" version="1.1" xmlns:xlink="http://www.w3.org/1999/xlink" xmlns:svgjs="http://svgjs.dev/svgjs" width="1000" height="1000"><g clip-path="url(#SvgjsClipPath1067)"><rect width="1000" height="1000" fill="#ffffff"></rect><g transform="matrix(1.7127219636550852,0,0,1.7127219636550852,100.00000000000003,106.17338814017927)"><svg xmlns="http://www.w3.org/2000/svg" version="1.1" xmlns:xlink="http://www.w3.org/1999/xlink" xmlns:svgjs="http://svgjs.dev/svgjs" width="467.092743" height="459.883881"><svg version="1.1" id="Contours" xmlns="http://www.w3.org/2000/svg" xmlns:xlink="http://www.w3.org/1999/xlink" x="0px" y="0px" width="467.092743" height="459.883881" viewBox="0.000000 0.000000 467.092743 459.883881" xml:space="preserve" stroke="black" fill="none" stroke-linecap="round" stroke-linejoin="round">
<desc xmlns:shape="http://adobe.com/products/shape">
</desc>
<path d="M48.6 258.0 C24.1 245.8 8.9 219.0 6.4 191.7 C2.4 149.0 28.6 105.8 67.3 87.4 C106.0 69.0 154.6 75.1 189.0 100.7 C195.8 105.8 205.8 100.9 210.9 94.2 C216.1 87.5 219.0 79.0 225.4 73.5 C231.8 67.9 244.0 67.6 246.9 75.6 C247.9 78.4 247.4 81.6 247.0 84.6 C237.7 145.0 239.3 207.0 251.8 266.8 C276.1 193.0 307.3 120.4 355.2 59.3 C376.5 31.9 403.8 5.7 438.1 1.0 C445.9 0.0 454.8 0.5 460.0 6.3 C465.2 12.1 462.4 24.1 454.6 24.0 C442.7 23.9 431.6 30.5 423.7 39.3 C415.9 48.1 410.7 59.0 406.0 69.8 C381.6 126.4 365.9 186.5 356.7 247.5 C351.1 283.9 347.9 321.4 355.5 357.4 C359.1 373.9 365.1 390.3 376.2 403.0 C387.3 415.6 404.3 424.0 421.0 421.7 C437.7 419.3 452.7 404.5 452.2 387.6 C467.1 406.4 457.0 437.1 436.0 448.5 C415.0 459.9 388.1 455.0 367.9 442.1 C342.3 425.8 325.4 398.1 317.4 368.8 C309.3 339.4 309.5 308.5 312.2 278.2 C317.3 221.9 331.3 166.5 353.7 114.5 C345.4 116.4 340.9 125.2 337.6 133.1 C306.5 206.4 275.4 279.8 244.3 353.2 C241.1 361.0 228.7 360.3 223.2 353.9 C217.6 347.5 217.1 338.3 216.8 329.9 C215.5 292.4 214.3 255.0 213.0 217.5 C212.7 206.1 212.2 194.2 206.7 184.2 C201.9 228.8 192.7 272.9 179.4 315.8 C169.7 346.9 157.1 378.3 134.2 401.4 C111.2 424.6 75.7 437.8 45.1 426.5 C22.2 418.0 5.0 395.7 2.4 371.4 C0.0 348.4 12.2 323.1 34.0 315.2 C55.8 307.4 84.2 323.0 85.0 346.2 C72.1 341.4 56.0 339.3 45.8 348.6 C33.5 359.7 38.7 382.4 53.0 390.6 C67.4 398.9 86.4 394.8 99.5 384.7 C112.7 374.6 121.0 359.6 128.1 344.6 C156.0 285.9 169.8 221.6 183.2 158.0 C184.2 153.5 185.2 148.7 183.9 144.3 C182.7 139.7 179.3 136.0 175.7 132.8 C154.2 113.6 122.3 106.4 95.1 115.7 C67.8 125.0 46.7 151.0 44.2 179.7 C43.1 192.3 45.7 205.6 53.0 215.9 C60.4 226.3 73.0 233.2 85.7 232.0 C98.3 230.8 110.0 220.4 111.1 207.7 C112.1 195.1 100.8 182.3 88.1 183.3 C88.9 173.0 99.2 165.1 109.6 165.0 C119.9 164.8 129.5 171.2 135.5 179.7 C151.5 202.3 141.1 236.6 118.5 252.7 C98.5 266.9 70.5 269.0 48.6 258.0 " fill="#000000" stroke="none"></path>

</svg></svg></g></g><defs><clipPath id="SvgjsClipPath1067"><rect width="1000" height="1000" x="0" y="0" rx="150" ry="150"></rect></clipPath></defs></svg>